<?xml version="1.0" encoding="UTF-8"?>
<svg xmlns="http://www.w3.org/2000/svg" xmlns:xlink="http://www.w3.org/1999/xlink" width="512" height="512" viewBox="0 0 512 512"><defs><linearGradient id="a" data-name="New Gradient Swatch 1" x1="-133.453" y1="344.97" x2="371.813" y2="-160.295" gradientUnits="userSpaceOnUse"><stop offset="0" stop-color="#003f8a"/><stop offset="0.518" stop-color="#00d7df"/><stop offset="1" stop-color="#006df0"/></linearGradient><linearGradient id="b" x1="30.548" y1="508.971" x2="535.814" y2="3.706" xlink:href="#a"/><linearGradient id="c" x1="134.548" y1="612.971" x2="639.814" y2="107.706" xlink:href="#a"/><linearGradient id="d" x1="-41.453" y1="436.97" x2="463.813" y2="-68.295" xlink:href="#a"/><linearGradient id="e" x1="50.547" y1="528.97" x2="555.813" y2="23.705" xlink:href="#a"/></defs><g><path d="M104,64H93.13a32,32,0,1,0-42.26,0H40A32.03,32.03,0,0,0,8,96v52a20.02,20.02,0,0,0,20,20h4v68a20.02,20.02,0,0,0,20,20H92a20.02,20.02,0,0,0,20-20V168h4a20.02,20.02,0,0,0,20-20V96A32.03,32.03,0,0,0,104,64ZM72,24A16,16,0,1,1,56,40,16.021,16.021,0,0,1,72,24Zm48,124a4,4,0,0,1-4,4h-4V120a8,8,0,0,0-16,0V236a4,4,0,0,1-4,4H80V176a8,8,0,0,0-16,0v64H52a4,4,0,0,1-4-4V120a8,8,0,0,0-16,0v32H28a4,4,0,0,1-4-4V96A16.021,16.021,0,0,1,40,80h64a16.021,16.021,0,0,1,16,16Z" fill="url(#a)"/><path d="M184,312H173.13a32,32,0,1,0-42.26,0H120a32.036,32.036,0,0,0-32,32v52a20.02,20.02,0,0,0,20,20h4v68a20.02,20.02,0,0,0,20,20h40a20.02,20.02,0,0,0,20-20V416h4a20.02,20.02,0,0,0,20-20V344A32.036,32.036,0,0,0,184,312Zm-32-40a16,16,0,1,1-16,16A16.021,16.021,0,0,1,152,272Zm48,124a4,4,0,0,1-4,4h-4V368a8,8,0,0,0-16,0V484a4,4,0,0,1-4,4H160V424a8,8,0,0,0-16,0v64H132a4,4,0,0,1-4-4V368a8,8,0,0,0-16,0v32h-4a4,4,0,0,1-4-4V344a16.021,16.021,0,0,1,16-16h64a16.021,16.021,0,0,1,16,16Z" fill="url(#b)"/><path d="M392,312H381.13a32,32,0,1,0-42.26,0H328a32.036,32.036,0,0,0-32,32v52a20.02,20.02,0,0,0,20,20h4v68a20.02,20.02,0,0,0,20,20h40a20.02,20.02,0,0,0,20-20V416h4a20.02,20.02,0,0,0,20-20V344A32.036,32.036,0,0,0,392,312Zm-32-40a16,16,0,1,1-16,16A16.021,16.021,0,0,1,360,272Zm48,124a4,4,0,0,1-4,4h-4V368a8,8,0,0,0-16,0V484a4,4,0,0,1-4,4H368V424a8,8,0,0,0-16,0v64H340a4,4,0,0,1-4-4V368a8,8,0,0,0-16,0v32h-4a4,4,0,0,1-4-4V344a16.021,16.021,0,0,1,16-16h64a16.021,16.021,0,0,1,16,16Z" fill="url(#c)"/><path d="M288,64H277.13a32,32,0,1,0-42.26,0H224a32.03,32.03,0,0,0-32,32v52a20.02,20.02,0,0,0,20,20h4v68a20.02,20.02,0,0,0,20,20h40a20.02,20.02,0,0,0,20-20V168h4a20.02,20.02,0,0,0,20-20V96A32.03,32.03,0,0,0,288,64ZM256,24a16,16,0,1,1-16,16A16.021,16.021,0,0,1,256,24Zm48,124a4,4,0,0,1-4,4h-4V120a8,8,0,0,0-16,0V236a4,4,0,0,1-4,4H264V176a8,8,0,0,0-16,0v64H236a4,4,0,0,1-4-4V120a8,8,0,0,0-16,0v32h-4a4,4,0,0,1-4-4V96a16.021,16.021,0,0,1,16-16h64a16.021,16.021,0,0,1,16,16Z" fill="url(#d)"/><path d="M472,64H461.13a32,32,0,1,0-42.26,0H408a32.03,32.03,0,0,0-32,32v52a20.02,20.02,0,0,0,20,20h4v68a20.02,20.02,0,0,0,20,20h40a20.02,20.02,0,0,0,20-20V168h4a20.02,20.02,0,0,0,20-20V96A32.03,32.03,0,0,0,472,64ZM440,24a16,16,0,1,1-16,16A16.021,16.021,0,0,1,440,24Zm48,124a4,4,0,0,1-4,4h-4V120a8,8,0,0,0-16,0V236a4,4,0,0,1-4,4H448V176a8,8,0,0,0-16,0v64H420a4,4,0,0,1-4-4V120a8,8,0,0,0-16,0v32h-4a4,4,0,0,1-4-4V96a16.021,16.021,0,0,1,16-16h64a16.021,16.021,0,0,1,16,16Z" fill="url(#e)"/></g></svg>
